PathFileType	4	(X/Y/Z)	/Users/itak/Documents/Research/Walk-IL/dataset/trc/00114_00007.trc
DataRate	CameraRate	NumFrames	NumMarkers	Units	OrigDataRate	OrigDataStartFrame	OrigNumFrames
100.000000	100.000000	4	53	mm	100.000000	0	559
Frame#	Time	RPSI			LPSI			L3			STRN			T10			C7			CLAV			RBAK			LBAK			LSHO			LUPA			LAEL			LAOL			LWTS			LWPS			LFRA			LIFD			LHPS			LHTS			RSHO			RUPA			RAEL			RAOL			RWTS			RWPS			RFRA			RIFD			RHTS			RHPS			RBHD			LFHD			RFHD			LBHD			LHIP			RHIP			RASI			LASI			LKNE			LTHI			LANK			LTIP			LTOE			LMT1			LMT5			LHEE			RKNE			RTHI			RANK			RTIP			RTOE			RMT1			RMT5			RHEE			
		X1	Y1	Z1	X2	Y2	Z2	X3	Y3	Z3	X4	Y4	Z4	X5	Y5	Z5	X6	Y6	Z6	X7	Y7	Z7	X8	Y8	Z8	X9	Y9	Z9	X10	Y10	Z10	X11	Y11	Z11	X12	Y12	Z12	X13	Y13	Z13	X14	Y14	Z14	X15	Y15	Z15	X16	Y16	Z16	X17	Y17	Z17	X18	Y18	Z18	X19	Y19	Z19	X20	Y20	Z20	X21	Y21	Z21	X22	Y22	Z22	X23	Y23	Z23	X24	Y24	Z24	X25	Y25	Z25	X26	Y26	Z26	X27	Y27	Z27	X28	Y28	Z28	X29	Y29	Z29	X30	Y30	Z30	X31	Y31	Z31	X32	Y32	Z32	X33	Y33	Z33	X34	Y34	Z34	X35	Y35	Z35	X36	Y36	Z36	X37	Y37	Z37	X38	Y38	Z38	X39	Y39	Z39	X40	Y40	Z40	X41	Y41	Z41	X42	Y42	Z42	X43	Y43	Z43	X44	Y44	Z44	X45	Y45	Z45	X46	Y46	Z46	X47	Y47	Z47	X48	Y48	Z48	X49	Y49	Z49	X50	Y50	Z50	X51	Y51	Z51	X52	Y52	Z52	X53	Y53	Z53	

1	0	406.287841796875	1126.35595703125	-281.1877746582031	411.3050231933594	1126.37158203125	-415.5958557128906	402.7809753417969	1157.9833984375	-350.56103515625	610.4553833007812	1364.341796875	-348.328369140625	361.1476745605469	1304.962524414062	-354.1372985839844	382.4110107421875	1598.283813476562	-371.632568359375	569.7826538085938	1498.09912109375	-355.4342041015625	335.60107421875	1413.853271484375	-282.1337890625	377.8639831542969	1575.545654296875	-472.3450927734375	467.2879638671875	1564.685180664062	-537.8699340820312	451.3265686035156	1431.199829101562	-606.3040771484375	472.29052734375	1212.568725585938	-622.2111206054688	405.79638671875	1199.074096679688	-565.9548950195312	586.4517211914062	963.593994140625	-572.861083984375	505.7183532714844	931.2998046875	-598.1990356445312	494.583251953125	1097.385009765625	-623.3101806640625	607.413330078125	770.2368774414062	-544.6190795898438	538.6337280273438	857.6835327148438	-596.8941650390625	606.4498901367188	874.7009887695312	-581.8576049804688	433.0366516113281	1584.704223632812	-187.5165252685547	415.6062622070312	1511.559204101562	-123.4859924316406	408.1293640136719	1217.050659179688	-102.6157608032227	410.6386413574219	1215.345825195312	-199.0242614746094	561.702880859375	981.3892822265625	-102.2019577026367	486.4144897460938	960.6107788085938	-77.75326538085938	432.3148803710938	1145.03125	-85.18647766113281	600.108642578125	789.3116455078125	-113.6212692260742	596.896728515625	875.6754150390625	-92.09271240234375	528.4772338867188	863.5609741210938	-68.82009124755859	410.7592163085938	1771.588134765625	-297.6213684082031	559.0471801757812	1845.14697265625	-443.2316284179688	561.6259155273438	1863.046997070312	-314.7198181152344	397.2572326660156	1755.921997070312	-431.9089660644531	506.5006713867188	1037.136840820312	-518.6216430664062	530.2916870117188	1032.857543945312	-159.3177185058594	611.8226928710938	1107.964599609375	-211.7726745605469	613.4825439453125	1105.30419921875	-477.3353271484375	520.5096435546875	537.6677856445312	-484.4728698730469	504.1595764160156	681.3848876953125	-513.1790161132812	403.4527587890625	35.01100921630859	-470.5811767578125	416.1105651855469	290.6604614257812	-507.5515441894531	636.4832153320312	37.22619247436523	-417.1585998535156	555.4534912109375	42.79007339477539	-382.9684448242188	527.3252563476562	33.74615097045898	-498.1346130371094	335.3732604980469	38.49516677856445	-408.5330200195312	510.84228515625	540.70556640625	-187.2025756835938	545.7114868164062	822.8636474609375	-164.2789764404297	403.1021728515625	31.67230987548828	-202.1372833251953	481.4280700683594	409.2816162109375	-176.1341247558594	638.1079711914062	42.78044891357422	-247.5198974609375	577.4630126953125	29.36822700500488	-291.3796997070312	537.9597778320312	39.62223815917969	-177.5880889892578	347.1614379882812	33.93873596191406	-253.6102752685547	
2	0.01	406.0049438476562	1126.311645507812	-281.2229614257812	411.1554565429688	1126.340698242188	-415.6299438476562	402.5740661621094	1157.953247070312	-350.60888671875	610.23388671875	1364.387084960938	-348.1836547851562	360.7467956542969	1304.920654296875	-354.3628540039062	382.1536254882812	1598.260620117188	-371.7347106933594	569.5673828125	1498.13134765625	-355.2942504882812	335.3036804199219	1413.795166015625	-282.3747253417969	377.7400817871094	1575.540771484375	-472.4906311035156	467.2863159179688	1564.698608398438	-537.875244140625	451.5499572753906	1431.208984375	-606.3186645507812	472.9176330566406	1212.570190429688	-622.125732421875	406.2907104492188	1198.971069335938	-566.0689697265625	587.221923828125	963.759521484375	-572.3366088867188	506.6349792480469	931.3853149414062	-597.9326782226562	495.3252868652344	1097.40673828125	-623.0908813476562	608.40478515625	770.4588623046875	-543.9317626953125	539.6029052734375	857.7627563476562	-596.5065307617188	607.345947265625	874.8377075195312	-581.20703125	432.5256652832031	1584.64794921875	-187.563232421875	415.057861328125	1511.514770507812	-123.5619735717773	407.7355346679688	1216.981811523438	-102.6727828979492	410.2874145507812	1215.269165039062	-199.0862426757812	561.824462890625	981.6527709960938	-102.0673828125	486.6192626953125	960.7020263671875	-77.64035034179688	432.0750427246094	1144.978881835938	-85.16883087158203	600.5669555664062	789.627197265625	-113.5038299560547	597.2061767578125	875.9874877929688	-91.94792175292969	528.8807983398438	863.7517700195312	-68.69734191894531	410.4482116699219	1771.616821289062	-297.6132507324219	558.9712524414062	1845.102294921875	-443.0860595703125	561.4553833007812	1862.932861328125	-314.5534362792969	397.1333618164062	1756.038940429688	-431.8936767578125	506.4968872070312	1037.142211914062	-518.56884765625	530.0305786132812	1032.851318359375	-159.2104949951172	611.3355102539062	1107.822509765625	-211.4360046386719	613.3936157226562	1105.40478515625	-477.2887268066406	520.6322631835938	537.6196899414062	-484.3985290527344	504.0819396972656	681.3934936523438	-513.1844482421875	403.4570007324219	34.99860382080078	-470.5928955078125	416.2032775878906	290.6140441894531	-507.5778198242188	636.4732666015625	37.26151657104492	-417.1605529785156	555.4434204101562	42.80057907104492	-382.9557800292969	527.3223876953125	33.76234436035156	-498.1251220703125	335.3600158691406	38.42328643798828	-408.5624084472656	511.0153503417969	540.6976928710938	-187.1846618652344	545.734130859375	822.9553833007812	-164.2954406738281	403.0814208984375	31.65172958374023	-202.1410369873047	481.6319885253906	409.184814453125	-176.1075439453125	638.0853881835938	42.79994201660156	-247.4992980957031	577.4415893554688	29.37717437744141	-291.3757934570312	537.9564819335938	39.62734603881836	-177.5945281982422	347.1217041015625	33.89357757568359	-253.6104583740234	
3	0.02	405.6592407226562	1126.267456054688	-281.26708984375	410.962890625	1126.3046875	-415.673828125	402.2989807128906	1157.922119140625	-350.6737976074219	609.952880859375	1364.439575195312	-348.0075988769531	360.2543334960938	1304.877319335938	-354.6390686035156	381.8169250488281	1598.234619140625	-371.8634338378906	569.29736328125	1498.177856445312	-355.1291809082031	334.9264526367188	1413.727905273438	-282.6647033691406	377.5775146484375	1575.541381835938	-472.6701354980469	467.2719116210938	1564.720947265625	-537.8842163085938	451.8293762207031	1431.226684570312	-606.3317260742188	473.6965637207031	1212.577514648438	-622.0221557617188	406.8973083496094	1198.84326171875	-566.20166015625	588.1756591796875	963.9668579101562	-571.6863403320312	507.7595520019531	931.4780883789062	-597.5960693359375	496.2487182617188	1097.436401367188	-622.817626953125	609.6098022460938	770.7313842773438	-543.087158203125	540.8121948242188	857.8821411132812	-596.0232543945312	608.4567260742188	875.0253295898438	-580.4085083007812	431.8964233398438	1584.582763671875	-187.6211700439453	414.3783264160156	1511.459350585938	-123.6537475585938	407.2451477050781	1216.897827148438	-102.7548446655273	409.8734436035156	1215.169677734375	-199.1709747314453	561.9555053710938	981.9681396484375	-101.8887176513672	486.830322265625	960.81103515625	-77.51194763183594	431.7689819335938	1144.912841796875	-85.15532684326172	601.1195068359375	790.009765625	-113.3334503173828	597.5686645507812	876.365966796875	-91.7431640625	529.339111328125	863.9822998046875	-68.54302978515625	410.0704956054688	1771.656494140625	-297.5994873046875	558.87255859375	1845.054809570312	-442.8965148925781	561.2408447265625	1862.796875	-314.3399658203125	396.9720153808594	1756.1923828125	-431.8720397949219	506.4367065429688	1037.146118164062	-518.516357421875	529.6928100585938	1032.848999023438	-159.0811767578125	610.7495727539062	1107.688354492188	-211.0610046386719	613.2742919921875	1105.528198242188	-477.22998046875	520.7877197265625	537.5620727539062	-484.3050231933594	504.0074157714844	681.4060668945312	-513.1765747070312	403.4635925292969	34.98398590087891	-470.611328125	416.3237915039062	290.5596313476562	-507.6141052246094	636.45703125	37.29930877685547	-417.1581726074219	555.4324951171875	42.81075668334961	-382.9406433105469	527.3199462890625	33.78121185302734	-498.1150512695312	335.3434143066406	38.34586715698242	-408.5993041992188	511.2524719238281	540.6875	-187.1741333007812	545.7568969726562	823.0658569335938	-164.3088836669922	403.0585632324219	31.62666893005371	-202.1427612304688	481.9211120605469	409.061767578125	-176.0694274902344	638.0598754882812	42.82454299926758	-247.4753265380859	577.4181518554688	29.38769340515137	-291.3734436035156	537.9456176757812	39.6277961730957	-177.5947418212891	347.07421875	33.83969116210938	-253.609375	
4	0.03	405.266357421875	1126.229370117188	-281.3189697265625	410.731201171875	1126.26708984375	-415.7268371582031	401.9593811035156	1157.894409179688	-350.7552185058594	609.6218872070312	1364.496826171875	-347.8094482421875	359.6984252929688	1304.838745117188	-354.9496765136719	381.4127502441406	1598.209228515625	-372.0121765136719	568.9828491210938	1498.239501953125	-354.9509582519531	334.4811706542969	1413.658447265625	-282.98583984375	377.3821105957031	1575.5517578125	-472.8739624023438	467.2401428222656	1564.755981445312	-537.8975219726562	452.1492004394531	1431.255859375	-606.340576171875	474.5888977050781	1212.594116210938	-621.9044799804688	407.5828857421875	1198.701171875	-566.3426513671875	589.2645263671875	964.2064208984375	-570.9395141601562	509.0319519042969	931.5698852539062	-597.2010498046875	497.3100280761719	1097.477172851562	-622.5031127929688	610.9656982421875	771.04443359375	-542.12939453125	542.2029418945312	858.0436401367188	-595.4650268554688	609.7279052734375	875.26220703125	-579.503173828125	431.1815490722656	1584.514770507812	-187.6877899169922	413.5995483398438	1511.39697265625	-123.7568893432617	406.6795959472656	1216.804077148438	-102.8634796142578	409.4268493652344	1215.052612304688	-199.2783966064453	562.078369140625	982.31494140625	-101.6690979003906	487.0153198242188	960.9306030273438	-77.38062286376953	431.40771484375	1144.836547851562	-85.15108489990234	601.7280883789062	790.4368896484375	-113.1058502197266	597.9512939453125	876.7874755859375	-91.47774505615234	529.8072509765625	864.2372436523438	-68.36354064941406	409.6488342285156	1771.707641601562	-297.5783996582031	558.7535400390625	1845.010009765625	-442.66748046875	560.9917602539062	1862.648071289062	-314.0872192382812	396.7764892578125	1756.378540039062	-431.8440246582031	506.2940368652344	1037.14697265625	-518.472900390625	529.2846069335938	1032.853393554688	-158.9385833740234	610.0989379882812	1107.585571289062	-210.6833038330078	613.1279907226562	1105.670043945312	-477.1627807617188	520.9683227539062	537.4998779296875	-484.1967468261719	503.9475402832031	681.4242553710938	-513.1494140625	403.47216796875	34.96833038330078	-470.636962890625	416.4678039550781	290.5018920898438	-507.6598205566406	636.4309692382812	37.33283996582031	-417.1485595703125	555.4217529296875	42.81961059570312	-382.924560546875	527.3187866210938	33.80126953125	-498.1048889160156	335.3251953125	38.27136993408203	-408.6419372558594	511.5548706054688	540.675537109375	-187.1763153076172	545.7702026367188	823.1856689453125	-164.3124542236328	403.0356750488281	31.59836196899414	-202.1408843994141	482.2982482910156	408.9180603027344	-176.0200500488281	638.033935546875	42.85237503051758	-247.4503021240234	577.3944091796875	29.39950370788574	-291.3732299804688	537.9282836914062	39.62366485595703	-177.5885772705078	347.0260925292969	33.78053665161133	-253.6046752929688	
